HIERARCHY
ROOT Pelvis
{
	OFFSET 0.000000 0.000000 0.000000
	CHANNELS 6 Xposition Yposition Zposition Xrotation Yrotation Zrotation
	JOINT LeftUpLeg_virtual
	{
		OFFSET 0.000000 0.000000 0.000000
		CHANNELS 3 Xrotation Yrotation Zrotation
		JOINT LeftUpLeg
		{
			OFFSET 18.735201 -5.666702 -4.541200
			CHANNELS 3 Xrotation Yrotation Zrotation
			JOINT LeftLeg
			{
				OFFSET -0.021200 -31.938179 0.493100
				CHANNELS 3 Xrotation Yrotation Zrotation
				JOINT LeftFoot
				{
					OFFSET 0.021200 -31.938179 -4.336299
					CHANNELS 3 Xrotation Yrotation Zrotation
					JOINT LeftToeBase
					{
						OFFSET 0.943001 -26.722000 15.023500
						CHANNELS 3 Xrotation Yrotation Zrotation
						End Site
						{
							OFFSET 0 0 0
						}
					}
				}
			}
		}
	}
	JOINT RightUpLeg_virtual
	{
		OFFSET 0.000000 0.000000 0.000000
		CHANNELS 3 Xrotation Yrotation Zrotation
		JOINT RightUpLeg
		{
			OFFSET -18.735201 -5.666702 -4.541200
			CHANNELS 3 Xrotation Yrotation Zrotation
			JOINT RightLeg
			{
				OFFSET 0.018946 -31.938133 0.493100
				CHANNELS 3 Xrotation Yrotation Zrotation
				JOINT RightFoot
				{
					OFFSET -0.018946 -31.938126 -4.336299
					CHANNELS 3 Xrotation Yrotation Zrotation
					JOINT RightToeBase
					{
						OFFSET -0.943001 -26.722004 15.023500
						CHANNELS 3 Xrotation Yrotation Zrotation
						End Site
						{
							OFFSET 0 0 0
						}
					}
				}
			}
		}
	}
	JOINT Hips_virtual
	{
		OFFSET 0.000000 0.000000 0.000000
		CHANNELS 3 Xrotation Yrotation Zrotation
		JOINT Hips
		{
			OFFSET -0.000000 -0.000000 -0.000000
			CHANNELS 3 Xrotation Yrotation Zrotation
			JOINT Spine
			{
				OFFSET 0.000000 10.199997 -0.299500
				CHANNELS 3 Xrotation Yrotation Zrotation
				JOINT Spine1
				{
					OFFSET 0.000000 11.900002 -1.516600
					CHANNELS 3 Xrotation Yrotation Zrotation
					JOINT Spine2
					{
						OFFSET 0.000000 13.600006 -2.842500
						CHANNELS 3 Xrotation Yrotation Zrotation
						JOINT Neck_virtual
						{
							OFFSET 0.000000 0.000000 0.000000
							CHANNELS 3 Xrotation Yrotation Zrotation
							JOINT Neck
							{
								OFFSET 0.000000 9.624100 -2.890100
								CHANNELS 3 Xrotation Yrotation Zrotation
								JOINT Head
								{
									OFFSET 0.000000 14.068802 -1.351900
									CHANNELS 3 Xrotation Yrotation Zrotation
									End Site
									{
										OFFSET 0 0 0
									}
								}
							}
						}
						JOINT LeftShoulder_virtual
						{
							OFFSET 0.000000 0.000000 0.000000
							CHANNELS 3 Xrotation Yrotation Zrotation
							JOINT LeftShoulder
							{
								OFFSET 15.263000 10.923401 -0.547700
								CHANNELS 3 Xrotation Yrotation Zrotation
								JOINT LeftArm
								{
									OFFSET 25.438599 -2.830597 -13.032500
									CHANNELS 3 Xrotation Yrotation Zrotation
									JOINT LeftForeArm
									{
										OFFSET 29.960503 0.000000 0.000000
										CHANNELS 3 Xrotation Yrotation Zrotation
										JOINT LeftHand
										{
											OFFSET 27.849251 0.000000 0.000000
											CHANNELS 3 Xrotation Yrotation Zrotation
											End Site
											{
												OFFSET 0 0 0
											}
										}
									}
								}
							}
						}
						JOINT RightShoulder_virtual
						{
							OFFSET 0.000000 0.000000 0.000000
							CHANNELS 3 Xrotation Yrotation Zrotation
							JOINT RightShoulder
							{
								OFFSET -15.263000 10.923401 -0.547700
								CHANNELS 3 Xrotation Yrotation Zrotation
								JOINT RightArm
								{
									OFFSET -25.438599 -2.830597 -13.032500
									CHANNELS 3 Xrotation Yrotation Zrotation
									JOINT RightForeArm
									{
										OFFSET -29.960503 0.000000 0.000000
										CHANNELS 3 Xrotation Yrotation Zrotation
										JOINT RightHand
										{
											OFFSET -27.849251 0.000000 0.000000
											CHANNELS 3 Xrotation Yrotation Zrotation
											End Site
											{
												OFFSET 0 0 0
											}
										}
									}
								}
							}
						}
					}
				}
			}
		}
	}
}
MOTION
Frames: 10
Frame Time: 0.03333333
-3.411125 78.268936 4.403854 0.000000 0.000000 0.000000 -6.178214 -21.878066 4.611690 -53.534152 0.524699 22.857274 49.091281 -8.532987 -2.256679 -3.839834 -7.664160 -14.991225 0.000000 0.000000 0.000000 8.337882 -35.356372 -2.642450 -22.882005 -14.057112 -23.533354 45.918809 6.249713 1.094131 -12.467322 0.881828 17.649485 0.000000 0.000000 0.000000 2.661263 -20.248244 1.779966 10.497552 -43.513503 11.361542 5.269811 8.329594 -3.326219 3.084963 5.118204 -2.949445 0.000000 0.000000 0.000000 -0.833636 4.537917 -2.266641 -2.347995 2.052511 -0.046910 0.000000 0.000000 0.000000 -4.228034 4.040285 -2.727591 -5.383063 1.393927 -6.706447 -19.795872 16.368005 -56.022048 -8.714311 -24.572297 -9.560034 0.000000 0.000000 0.000000 -4.064935 5.116289 -1.863918 -6.623232 20.560234 0.306831 -27.570337 -16.438271 40.988594 -13.155813 32.147043 12.889702 0.000000 0.000000 0.000000 
-3.402144 78.085899 4.473501 0.000000 0.000000 0.000000 -7.723264 -20.359013 5.064630 -55.506980 0.268338 23.561463 48.893069 -9.136292 -2.570911 -3.627443 -8.212557 -16.040551 0.000000 0.000000 0.000000 8.560135 -36.361386 -3.460479 -21.973514 -14.367757 -24.384960 45.085758 6.572992 1.295386 -13.481649 0.872532 17.935132 0.000000 0.000000 0.000000 -0.117403 -20.303912 -0.118998 14.519780 -40.708542 12.010038 4.615999 7.610175 -4.259974 3.233413 4.846221 -3.449575 0.000000 0.000000 0.000000 -1.859926 3.731230 -2.470689 -2.973092 1.858728 0.157534 0.000000 0.000000 0.000000 -4.141737 3.835255 -2.704486 -4.935995 2.555501 -4.696018 -21.330846 18.826976 -54.069246 -8.015835 -22.031185 -8.156441 0.000000 0.000000 0.000000 -4.525143 5.095853 -2.530898 -5.936458 20.122760 -1.336308 -25.636579 -17.613125 40.335597 -15.224546 35.831650 15.173424 0.000000 0.000000 0.000000 
-4.467851 77.437553 6.197004 0.000000 0.000000 0.000000 -8.310019 -17.714531 4.398929 -56.084814 1.078890 23.175694 49.513448 -8.868125 -3.091559 -2.706593 -7.793219 -16.782861 0.000000 0.000000 0.000000 9.951440 -35.618576 -2.618287 -20.333796 -14.587792 -23.736485 45.629270 6.946834 1.043008 -13.766089 1.205448 17.773397 0.000000 0.000000 0.000000 0.727514 -20.373099 1.519917 10.395429 -39.083883 11.727807 3.957652 6.242833 -3.959133 2.533547 4.209160 -3.171741 0.000000 0.000000 0.000000 -2.958787 2.535430 -2.123014 -4.015880 1.212154 0.129150 0.000000 0.000000 0.000000 -3.484421 4.034383 -2.108134 -4.943067 1.670978 -3.539997 -22.406043 21.012814 -54.904411 -8.437898 -17.686278 -8.459305 0.000000 0.000000 0.000000 -4.982971 4.832055 -2.320023 -6.080643 19.709575 -0.569604 -24.120038 -14.635523 45.197028 -17.021612 37.144044 16.796721 0.000000 0.000000 0.000000 
-5.249103 77.271645 6.518381 0.000000 0.000000 0.000000 -8.783588 -16.412461 3.587724 -56.716129 1.665538 22.689731 48.240158 -8.480080 -3.018047 -3.580798 -7.371183 -16.367018 0.000000 0.000000 0.000000 10.708974 -35.935647 -1.971422 -19.691961 -14.875921 -23.317289 44.648731 6.975779 1.948130 -15.120504 0.442508 18.756333 0.000000 0.000000 0.000000 -1.110486 -20.441066 1.105695 9.747939 -36.372178 11.579054 1.688173 4.270502 -2.906203 2.696494 3.425096 -3.594904 0.000000 0.000000 0.000000 -4.312903 0.737916 -1.160032 -4.579903 0.590179 0.587057 0.000000 0.000000 0.000000 -2.722788 2.869649 -1.699851 -4.890783 0.569305 -0.031895 -24.365749 18.943796 -50.883250 -8.831560 -19.621182 -7.195699 0.000000 0.000000 0.000000 -4.296829 3.978286 -2.402355 -6.168300 15.791049 -0.477884 -23.501547 -18.192923 45.973655 -19.230965 42.947441 20.086608 0.000000 0.000000 0.000000 
-5.555133 76.975090 7.121784 0.000000 0.000000 0.000000 -7.543111 -18.352542 3.437672 -55.605680 1.627789 22.532920 48.058502 -8.335116 -3.637119 -3.559930 -6.926634 -17.238952 0.000000 0.000000 0.000000 10.636362 -36.280862 -1.749526 -19.931626 -15.002910 -23.117446 45.672338 6.838760 1.751685 -15.058984 0.350414 18.355761 0.000000 0.000000 0.000000 1.220434 -19.699171 1.532737 9.727987 -32.261060 12.365512 2.857063 2.547982 -2.996930 3.162351 2.116009 -3.420743 0.000000 0.000000 0.000000 -4.938920 -1.031398 -0.519561 -5.219617 -0.221884 1.016386 0.000000 0.000000 0.000000 -1.927699 1.553052 -1.846361 -4.181687 -1.871130 0.220607 -21.345495 18.128280 -49.536497 -7.593221 -18.024777 -6.763914 0.000000 0.000000 0.000000 -3.810534 2.495621 -2.082131 -5.348430 11.454287 -0.449982 -22.497156 -18.562262 44.946599 -20.635887 46.644936 22.104608 0.000000 0.000000 0.000000 
-4.755921 76.936096 5.898872 0.000000 0.000000 0.000000 -6.472608 -18.781623 3.676272 -54.633027 1.716791 22.738844 47.055922 -8.498761 -4.252196 -4.154645 -6.736721 -18.313170 0.000000 0.000000 0.000000 11.011969 -35.737018 -1.506060 -19.213742 -14.982440 -22.727893 44.965628 6.412045 1.621648 -15.417369 0.087337 17.776240 0.000000 0.000000 0.000000 0.713981 -24.443782 2.975356 15.479806 -19.880095 12.577195 3.210501 -0.273697 -2.378994 4.679128 0.786394 -3.431016 0.000000 0.000000 0.000000 -5.063223 -2.339535 -0.366552 -4.859905 -0.928383 1.099899 0.000000 0.000000 0.000000 -0.430719 0.400687 -1.886769 -2.412414 -5.459940 1.548849 -20.631100 18.013133 -50.334304 -7.327723 -18.916352 -7.556706 0.000000 0.000000 0.000000 -2.898871 1.423940 -1.606527 -4.781133 8.009756 0.275602 -25.192623 -15.080935 45.486287 -20.094521 48.144258 22.835430 0.000000 0.000000 0.000000 
-6.335398 77.822563 7.112892 0.000000 0.000000 0.000000 -5.804409 -20.919027 4.021378 -54.099077 1.231677 22.930461 46.890140 -8.783268 -4.463188 -4.438783 -6.833700 -18.890527 0.000000 0.000000 0.000000 12.393991 -35.993068 0.125665 -18.128488 -15.458776 -21.417221 46.411180 6.272345 1.979786 -15.109649 -0.281775 18.108114 0.000000 0.000000 0.000000 3.694290 -25.587364 4.896111 15.860574 -18.426906 12.965516 3.662693 -2.809182 -1.497888 5.737501 -1.401628 -3.081059 0.000000 0.000000 0.000000 -4.271760 -3.689512 0.084176 -4.514462 -1.588642 1.292701 0.000000 0.000000 0.000000 0.217142 -1.032398 -1.896497 -1.644768 -10.530817 1.823350 -18.271024 15.583833 -49.641009 -6.246652 -21.132289 -7.774250 0.000000 0.000000 0.000000 -2.047831 0.093510 -0.795557 -3.624628 2.698361 2.695610 -25.711211 -13.952860 48.726272 -23.421924 51.414888 27.454335 0.000000 0.000000 0.000000 
-7.598972 77.810074 8.300575 0.000000 0.000000 0.000000 -4.780457 -20.623136 5.154385 -53.155042 1.053356 23.852127 47.107951 -9.048855 -5.020268 -4.677591 -6.682807 -19.961528 0.000000 0.000000 0.000000 13.568853 -35.757710 1.086704 -16.688480 -15.852987 -20.565565 46.409131 6.660997 1.746305 -15.560505 0.088892 17.936440 0.000000 0.000000 0.000000 5.228787 -26.669409 5.497910 16.004240 -14.654888 13.264166 6.644214 -5.700995 0.023554 7.017202 -2.941082 -2.783773 0.000000 0.000000 0.000000 -2.753145 -4.993749 -0.080576 -4.130549 -2.383221 1.429177 0.000000 0.000000 0.000000 1.683818 -3.065652 -2.050664 -1.164785 -15.090637 2.520369 -15.147510 16.661601 -51.021096 -6.042901 -22.307569 -8.001649 0.000000 0.000000 0.000000 0.173211 -1.207946 -0.534964 -1.890729 -2.148192 4.273897 -26.479624 -13.047272 47.787285 -28.866131 55.238028 32.343111 0.000000 0.000000 0.000000 
-8.055677 77.448685 7.524443 0.000000 0.000000 0.000000 -4.283715 -19.523498 5.414696 -52.699171 1.343475 24.154037 46.593966 -8.991522 -5.513377 -5.263967 -6.240144 -20.606394 0.000000 0.000000 0.000000 14.371447 -34.629578 1.824543 -15.886694 -15.772855 -19.816307 46.299001 6.739589 1.479356 -16.043571 0.193025 17.553600 0.000000 0.000000 0.000000 7.224003 -26.420562 7.174461 18.673922 -10.841317 15.505359 8.773082 -8.887274 0.295401 8.664647 -4.715669 -2.487889 0.000000 0.000000 0.000000 -1.472282 -6.199338 -0.781093 -3.412120 -2.856844 1.070268 0.000000 0.000000 0.000000 3.452858 -4.724712 -2.163684 0.423642 -19.870885 2.231292 -15.322408 16.547969 -47.643629 -4.936853 -19.656098 -6.670761 0.000000 0.000000 0.000000 1.311551 -2.950109 0.104152 -0.110765 -7.336906 5.729974 -26.916483 -12.973555 46.168329 -29.353868 55.802092 32.517653 0.000000 0.000000 0.000000 
-8.557961 77.421532 8.107817 0.000000 0.000000 0.000000 -3.812309 -18.438514 5.313779 -52.122898 1.767727 24.095352 46.928034 -9.179417 -6.012537 -5.116275 -6.149200 -21.513752 0.000000 0.000000 0.000000 14.647592 -33.507880 1.360980 -15.170226 -15.495563 -20.029410 46.416548 6.538957 1.137596 -16.037730 0.229728 16.954461 0.000000 0.000000 0.000000 8.689863 -26.754459 8.245560 22.693082 -8.376220 17.142419 11.230139 -11.411289 0.903542 10.193544 -6.172658 -2.302863 0.000000 0.000000 0.000000 -0.122131 -7.440014 -1.048280 -2.694071 -3.226401 0.921326 0.000000 0.000000 0.000000 5.205072 -6.057658 -2.050099 1.828923 -22.610848 1.707551 -13.393115 16.446310 -45.437109 -3.792537 -17.863567 -5.648385 0.000000 0.000000 0.000000 3.002723 -3.934188 0.768606 1.610033 -10.447587 6.515074 -26.864666 -11.486297 43.347775 -31.037233 59.582711 33.664302 0.000000 0.000000 0.000000 
